<?xml version="1.0" encoding="UTF-8"?>
<svg xmlns="http://www.w3.org/2000/svg" xmlns:xlink="http://www.w3.org/1999/xlink" viewBox="0 0 48 48" width="48px" height="48px">
<g id="surface6289115">
<path style=" stroke:none;fill-rule:nonzero;fill:rgb(100%,100%,100%);fill-opacity:1;" d="M 10 6 C 7.789062 6 6 7.789062 6 10 L 6 38 C 6 40.210938 7.789062 42 10 42 L 38 42 C 40.210938 42 42 40.210938 42 38 L 42 10 C 42 7.789062 40.210938 6 38 6 Z M 10 10 L 38 10 L 38 38 L 10 38 Z M 15.558594 12.632812 C 13.84375 12.632812 12.816406 13.664062 12.816406 15.035156 C 12.816406 16.40625 13.84375 17.433594 15.386719 17.433594 C 17.101562 17.433594 18.128906 16.40625 18.128906 15.035156 C 18.128906 13.664062 17.101562 12.632812 15.558594 12.632812 Z M 12.953125 20 L 12.953125 34 L 18 34 L 18 20 Z M 22.164062 20 L 22.164062 34 L 27.210938 34 L 27.210938 26.347656 C 27.210938 24.070312 28.835938 23.742188 29.324219 23.742188 C 29.8125 23.742188 31.117188 24.230469 31.117188 26.347656 L 31.117188 34 L 36 34 L 36 26.347656 C 36 21.953125 34.046875 20 31.605469 20 C 29.164062 20 27.859375 20.8125 27.210938 21.953125 L 27.210938 20 Z M 22.164062 20 "/>
</g>
</svg>
